<svg width="184" height="184" viewBox="0 0 184 184" fill="none" xmlns="http://www.w3.org/2000/svg">
<path d="M66.5834 0.333313H64.9167L23.6667 19.5C22.9343 19.8195 22.3092 20.3429 21.8659 21.0078C21.4227 21.6727 21.1799 22.451 21.1667 23.25V54.0833L18.6667 56.1666L2.00002 69.9166C1.42182 70.2431 0.954275 70.7347 0.657331 71.3286C0.360388 71.9225 0.247576 72.5916 0.333356 73.25V110.75C0.296519 111.403 0.430943 112.054 0.723296 112.638C1.01565 113.223 1.45577 113.721 2.00002 114.083L18.6667 127.833L21.1667 129.917V160.75C21.1799 161.549 21.4227 162.327 21.8659 162.992C22.3092 163.657 22.9343 164.18 23.6667 164.5L64.9167 183.25H66.5834L69.0834 182.417L85.75 171.167V98.25H79.5C77.8424 98.25 76.2527 97.5915 75.0806 96.4194C73.9085 95.2473 73.25 93.6576 73.25 92C73.25 90.3424 73.9085 88.7527 75.0806 87.5806C76.2527 86.4085 77.8424 85.75 79.5 85.75H85.75V12.4166L69.0834 1.16665L66.5834 0.333313ZM29.5 48.25L41.1667 56.1666C41.8558 56.6274 42.4463 57.2207 42.9039 57.9119C43.3615 58.603 43.6771 59.3784 43.8322 60.1927C43.9873 61.007 43.9788 61.844 43.8074 62.655C43.6359 63.466 43.3048 64.2348 42.8334 64.9166C42.3258 65.7959 41.5976 66.5274 40.7207 67.0389C39.8437 67.5505 38.8485 67.8243 37.8334 67.8333C37.2225 67.8578 36.6128 67.7598 36.0404 67.5452C35.4679 67.3305 34.9442 67.0035 34.5 66.5833L29.5 63.25V48.25ZM8.66669 85.75H23.25C24.9076 85.75 26.4973 86.4085 27.6694 87.5806C28.8415 88.7527 29.5 90.3424 29.5 92C29.5 93.6576 28.8415 95.2473 27.6694 96.4194C26.4973 97.5915 24.9076 98.25 23.25 98.25H8.66669V85.75ZM29.5 120.75L34.5 117.417C35.1486 116.955 35.8848 116.631 36.6634 116.464C37.4419 116.298 38.2462 116.293 39.0269 116.449C39.8076 116.605 40.548 116.919 41.2026 117.372C41.8573 117.825 42.4122 118.408 42.8334 119.083C43.3048 119.765 43.6359 120.534 43.8074 121.345C43.9788 122.156 43.9873 122.993 43.8322 123.807C43.6771 124.622 43.3615 125.397 42.9039 126.088C42.4463 126.779 41.8558 127.373 41.1667 127.833L29.5 135.75V120.75ZM73.25 69.5L56.5834 86.1666V97.8333L73.25 114.5V136.167L59.0834 150.75C57.7444 151.729 56.1549 152.307 54.5 152.417C52.8452 152.307 51.2556 151.729 49.9167 150.75C48.7445 149.512 48.0912 147.872 48.0912 146.167C48.0912 144.462 48.7445 142.821 49.9167 141.583L60.75 131.167V119.5L44.0834 102.833V81.1666L60.75 64.5V52.8333L49.9167 42.4166C49.0569 41.8903 48.3277 41.1758 47.784 40.3269C47.2402 39.4781 46.896 38.517 46.7773 37.5159C46.6586 36.5148 46.7685 35.4999 47.0987 34.5474C47.4289 33.5949 47.9708 32.7297 48.6836 32.0169C49.3964 31.304 50.2616 30.7622 51.2141 30.432C52.1666 30.1018 53.1815 29.9919 54.1826 30.1106C55.1837 30.2293 56.1448 30.5735 56.9936 31.1173C57.8425 31.661 58.557 32.3902 59.0834 33.25L73.25 47.8333V69.5Z" fill="url(#paint0_linear_37_211)"/>
<path d="M182 69.9167L165.333 56.1667L162.833 54.0833V23.25C162.82 22.451 162.577 21.6727 162.134 21.0078C161.691 20.3429 161.066 19.8195 160.333 19.5L119.083 0.75H117.417L114.917 1.58333L98.25 12.8333V85.75H104.5C106.158 85.75 107.747 86.4085 108.919 87.5806C110.092 88.7527 110.75 90.3424 110.75 92C110.75 93.6576 110.092 95.2473 108.919 96.4194C107.747 97.5915 106.158 98.25 104.5 98.25H98.25V171.583L114.917 182.833L117.417 183.667H119.083L160.333 164.917C161.066 164.597 161.691 164.074 162.134 163.409C162.577 162.744 162.82 161.966 162.833 161.167V129.917L165.333 127.833L182 114.083C182.544 113.721 182.984 113.223 183.277 112.638C183.569 112.054 183.703 111.403 183.667 110.75V73.25C183.752 72.5916 183.64 71.9225 183.343 71.3287C183.046 70.7348 182.578 70.2431 182 69.9167ZM154.5 63.25L149.5 66.5833C149.056 67.0035 148.532 67.3305 147.96 67.5452C147.387 67.7599 146.778 67.8578 146.167 67.8333C145.152 67.8243 144.156 67.5505 143.279 67.0389C142.402 66.5274 141.674 65.7959 141.167 64.9167C140.695 64.2348 140.364 63.466 140.193 62.655C140.021 61.844 140.013 61.007 140.168 60.1927C140.323 59.3784 140.638 58.6031 141.096 57.9119C141.554 57.2207 142.144 56.6274 142.833 56.1667L154.5 48.25V63.25ZM110.75 114.5L127.417 97.8333V86.1667L110.75 69.5V47.8333L124.917 33.25C126.193 32.4684 127.696 32.1392 129.183 32.3154C130.669 32.4917 132.053 33.1632 133.112 34.2217C134.17 35.2802 134.842 36.6642 135.018 38.1508C135.194 39.6373 134.865 41.14 134.083 42.4167L123.25 52.8333V64.5L139.917 81.1667V102.833L123.25 119.5V131.167L134.083 141.583C135.256 142.821 135.909 144.462 135.909 146.167C135.909 147.872 135.256 149.512 134.083 150.75C132.803 151.836 131.179 152.433 129.5 152.433C127.821 152.433 126.197 151.836 124.917 150.75L110.75 136.167V114.5ZM154.5 135.75L142.833 127.833C142.144 127.373 141.554 126.779 141.096 126.088C140.638 125.397 140.323 124.622 140.168 123.807C140.013 122.993 140.021 122.156 140.193 121.345C140.364 120.534 140.695 119.765 141.167 119.083C141.588 118.408 142.143 117.825 142.797 117.372C143.452 116.919 144.192 116.605 144.973 116.449C145.754 116.293 146.558 116.298 147.337 116.464C148.115 116.631 148.851 116.955 149.5 117.417L154.5 120.75V135.75ZM175.333 98.25H160.75C159.092 98.25 157.503 97.5915 156.331 96.4194C155.158 95.2473 154.5 93.6576 154.5 92C154.5 90.3424 155.158 88.7527 156.331 87.5806C157.503 86.4085 159.092 85.75 160.75 85.75H175.333V98.25Z" fill="url(#paint1_linear_37_211)"/>
<defs>
<linearGradient id="paint0_linear_37_211" x1="43.0277" y1="0.333313" x2="43.0277" y2="183.25" gradientUnits="userSpaceOnUse">
<stop stop-color="#010C45"/>
<stop offset="0.58" stop-color="#59268C"/>
<stop offset="0.795" stop-color="#59268C"/>
<stop offset="1" stop-color="#59268C"/>
</linearGradient>
<linearGradient id="paint1_linear_37_211" x1="140.972" y1="0.75" x2="140.972" y2="183.667" gradientUnits="userSpaceOnUse">
<stop stop-color="#010C45"/>
<stop offset="0.58" stop-color="#59268C"/>
<stop offset="0.795" stop-color="#59268C"/>
<stop offset="1" stop-color="#59268C"/>
</linearGradient>
</defs>
</svg>
