<svg width="200" height="200" viewBox="0 0 200 200" fill="none" xmlns="http://www.w3.org/2000/svg">
<path d="M52.7734 79.9219C48.5938 79.9219 45.2344 83.3203 45.2344 87.5C45.2344 91.6797 48.6328 95.0781 52.7734 95.0781C56.9141 95.0781 60.3125 91.6797 60.3125 87.5C60.3125 83.3203 56.9531 79.9219 52.7734 79.9219Z" fill="url(#paint0_linear_37_193)"/>
<path d="M182.148 97.2266C173.867 62.6562 165.117 44.2969 147.578 39.1016C143.75 37.9687 140.508 37.5391 137.539 37.5391C126.758 37.5391 119.219 43.2813 99.9998 43.2813C80.7811 43.2813 73.242 37.5391 62.4608 37.5391C59.453 37.5391 56.2108 37.9687 52.4217 39.1016C34.8826 44.2969 26.1326 62.6953 17.8514 97.2266C9.57014 131.797 11.0936 156.758 20.8592 161.406C22.4608 162.148 24.0623 162.5 25.742 162.5C34.2186 162.5 43.3592 153.203 52.1873 142.188C62.2264 129.648 64.7264 129.297 95.2733 129.297H104.765C135.273 129.297 137.812 129.609 147.851 142.188C156.64 153.203 165.82 162.5 174.297 162.5C175.937 162.5 177.578 162.148 179.18 161.406C188.906 156.719 190.39 131.758 182.148 97.2266ZM52.8123 102.969C44.3748 102.969 37.4998 96.0156 37.4998 87.5C37.4998 78.9844 44.3748 72.0312 52.8123 72.0312C61.2889 72.0312 68.1248 78.9844 68.1248 87.5C68.1639 96.0547 61.2889 102.969 52.8123 102.969ZM120.351 95.3516C116.015 95.3516 112.5 91.8359 112.5 87.5C112.5 83.1641 116.015 79.6484 120.351 79.6484C124.687 79.6484 128.203 83.1641 128.203 87.5C128.203 91.8359 124.687 95.3516 120.351 95.3516ZM137.5 112.5C133.164 112.5 129.648 108.984 129.648 104.688C129.648 100.312 133.164 96.8359 137.5 96.8359C141.836 96.8359 145.351 100.312 145.351 104.688C145.351 108.984 141.836 112.5 137.5 112.5ZM137.5 78.2031C133.164 78.2031 129.648 74.6875 129.648 70.3516C129.648 66.0156 133.164 62.5 137.5 62.5C141.836 62.5 145.351 66.0156 145.351 70.3516C145.351 74.6875 141.836 78.2031 137.5 78.2031ZM154.648 95.3516C150.312 95.3516 146.797 91.8359 146.797 87.5C146.797 83.1641 150.312 79.6484 154.648 79.6484C158.984 79.6484 162.5 83.1641 162.5 87.5C162.5 91.8359 158.984 95.3516 154.648 95.3516Z" fill="url(#paint1_linear_37_193)"/>
<defs>
<linearGradient id="paint0_linear_37_193" x1="52.7734" y1="79.9219" x2="52.7734" y2="95.0781" gradientUnits="userSpaceOnUse">
<stop stop-color="#010C45"/>
<stop offset="0.58" stop-color="#59268C"/>
<stop offset="0.795" stop-color="#59268C"/>
<stop offset="1" stop-color="#59268C"/>
</linearGradient>
<linearGradient id="paint1_linear_37_193" x1="99.9934" y1="37.5391" x2="99.9934" y2="162.5" gradientUnits="userSpaceOnUse">
<stop stop-color="#010C45"/>
<stop offset="0.58" stop-color="#59268C"/>
<stop offset="0.795" stop-color="#59268C"/>
<stop offset="1" stop-color="#59268C"/>
</linearGradient>
</defs>
</svg>
