<svg width="200" height="156" viewBox="0 0 200 156" fill="none" xmlns="http://www.w3.org/2000/svg">
<path d="M100 0.222168C71.9446 0.222168 49.4793 12.9999 33.1251 28.2083C16.8751 43.2777 6.00705 61.3333 0.868164 73.7291C-0.277669 76.4722 -0.277669 79.5277 0.868164 82.2708C6.00705 94.6666 16.8751 112.722 33.1251 127.792C49.4793 143 71.9446 155.778 100 155.778C128.056 155.778 150.521 143 166.875 127.792C183.125 112.687 193.993 94.6666 199.167 82.2708C200.313 79.5277 200.313 76.4722 199.167 73.7291C193.993 61.3333 183.125 43.2777 166.875 28.2083C150.521 12.9999 128.056 0.222168 100 0.222168ZM50.0001 78C50.0001 64.7391 55.268 52.0214 64.6448 42.6446C74.0216 33.2678 86.7393 28 100 28C113.261 28 125.979 33.2678 135.355 42.6446C144.732 52.0214 150 64.7391 150 78C150 91.2608 144.732 103.978 135.355 113.355C125.979 122.732 113.261 128 100 128C86.7393 128 74.0216 122.732 64.6448 113.355C55.268 103.978 50.0001 91.2608 50.0001 78ZM100 55.7777C100 68.0347 90.0349 78 77.7779 78C75.3126 78 72.9515 77.5833 70.7293 76.8541C68.8196 76.2291 66.5973 77.4097 66.6668 79.4236C66.771 81.8194 67.1182 84.2152 67.7779 86.6111C72.5348 104.389 90.8335 114.944 108.611 110.187C126.389 105.431 136.945 87.1319 132.188 69.3541C128.333 54.9444 115.59 45.2569 101.424 44.6666C99.4099 44.5972 98.2293 46.7847 98.8543 48.7291C99.5835 50.9513 100 53.3125 100 55.7777Z" fill="url(#paint0_linear_64_46)"/>
<defs>
<linearGradient id="paint0_linear_64_46" x1="100.017" y1="0.222168" x2="100.017" y2="155.778" gradientUnits="userSpaceOnUse">
<stop stop-color="#111C59"/>
<stop offset="0.9997" stop-color="#8332A6"/>
<stop offset="0.9998" stop-color="#8136A1"/>
<stop offset="0.9999" stop-color="#8037A0"/>
<stop offset="1" stop-color="#8332A6"/>
</linearGradient>
</defs>
</svg>
