<svg width="178" height="177" viewBox="0 0 178 177" fill="none" xmlns="http://www.w3.org/2000/svg">
<path d="M78.3921 0.585987V45.2024H85.3011V0.585205H78.3925L78.3921 0.585987ZM36.107 0.829738C30.0496 0.829738 25.1328 5.74614 25.1328 11.8036C25.1328 17.861 30.0496 22.7657 36.107 22.7657C41.0503 22.7657 45.2242 19.4954 46.5929 15.002H64.1464V45.2024H71.0558V8.09302H46.4335C44.9148 3.85981 40.8624 0.829738 36.107 0.829738ZM111.595 0.829738C105.538 0.829738 100.633 5.74614 100.633 11.8036C100.633 16.5395 103.632 20.5731 107.836 22.1067V45.202H114.733V22.3141C119.262 20.9657 122.57 16.77 122.57 11.804C122.57 5.74614 117.653 0.829738 111.596 0.829738H111.595ZM92.9546 24.1329V45.2024H99.8519V24.1329H92.9554H92.9546ZM166.6 25.7071C160.543 25.7071 155.626 30.6243 155.626 36.6817C155.626 41.7922 159.121 46.0856 163.853 47.302V58.0317H127.55V64.929H170.762V46.8266C174.755 45.1891 177.562 41.2668 177.562 36.6821C177.562 30.6247 172.657 25.7079 166.599 25.7079L166.6 25.7071ZM0.791748 36.3036V43.2129H26.7929V64.9293H51.3296V58.0313H33.7023V36.3032H0.792138L0.791748 36.3036ZM58.2261 52.1122V114.502H120.652V52.1114H58.2265L58.2261 52.1122ZM65.0855 58.2274H71.9828V88.9286L84.6418 101.587H114.048V108.485H81.7734L80.7601 107.472L76.5609 103.272C76.1574 106.157 73.6859 108.375 70.6898 108.375C67.4117 108.375 64.7562 105.72 64.7562 102.442C64.7562 99.4415 66.9812 96.9813 69.8714 96.5829L66.1 92.8102L65.0867 91.7973V58.2266L65.0855 58.2274ZM86.5464 58.2887H93.455V79.8954H113.975L113.975 86.8047H86.5468V58.2891L86.5464 58.2887ZM9.75151 72.9122V108.056C5.26323 109.428 1.99995 113.602 1.99995 118.542C1.99995 124.599 6.90503 129.516 12.9625 129.516C19.0199 129.516 23.9363 124.599 23.9363 118.543C23.9363 113.779 20.8933 109.729 16.6488 108.215V79.809H51.3293V72.9126H9.75151V72.9122ZM127.55 72.9122V79.809H148.631V72.9126H127.549L127.55 72.9122ZM166.6 81.4942C162.343 81.4942 158.653 83.92 156.834 87.4629H127.549L127.55 94.3723H155.797C156.705 99.5161 161.197 103.43 166.6 103.43C172.657 103.43 177.562 98.5126 177.562 92.4555C177.562 86.3981 172.657 81.4938 166.6 81.4938V81.4942ZM30.2472 87.4629V94.3723H51.3293V87.4629H30.2472ZM36.9488 101.709V134.606C32.4574 135.979 29.1851 140.153 29.1851 145.092C29.1851 151.149 34.1019 156.066 40.1593 156.066C46.2164 156.066 51.1203 151.149 51.1203 145.092C51.1203 140.329 48.0867 136.278 43.8453 134.765V108.617H51.3281V101.708H36.9492L36.9488 101.709ZM127.55 101.709V108.618H145.189V145.838C140.766 147.253 137.56 151.408 137.56 156.298C137.559 162.356 142.476 167.261 148.533 167.261C154.591 167.261 159.495 162.356 159.495 156.299C159.495 151.486 156.396 147.401 152.085 145.923V101.709H127.548H127.55ZM64.1464 121.41V142.517H71.0558V121.41H64.1464ZM78.3925 121.41V155.224C74.0906 156.706 70.9941 160.784 70.9941 165.588C70.9941 171.645 75.9113 176.562 81.9687 176.562C88.0261 176.562 92.9308 171.644 92.9308 165.588C92.9308 160.693 89.7265 156.548 85.3011 155.138V121.41H78.3925ZM92.955 121.41V142.517H99.8644L99.8519 121.411H92.9554L92.955 121.41ZM107.835 121.41V176.123H114.732V121.41H107.836H107.835Z" fill="url(#paint0_linear_64_48)"/>
<defs>
<linearGradient id="paint0_linear_64_48" x1="89.1769" y1="0.585205" x2="89.1769" y2="176.562" gradientUnits="userSpaceOnUse">
<stop stop-color="#010C45"/>
<stop offset="1" stop-color="#8332A6"/>
</linearGradient>
</defs>
</svg>
