<svg width="150" height="147" viewBox="0 0 150 147" fill="none" xmlns="http://www.w3.org/2000/svg">
<path d="M61.5625 51.125C59.25 50.1875 56.75 49.8125 54.1875 49.875C52.5625 49.875 51.125 49.875 49.9375 49.9375C48.6875 49.875 47.8125 49.9375 47.375 50V71C48.25 71.0625 49.0625 71.125 49.8125 71.125H53.125C55.5625 71.125 58 70.75 60.3125 70C62.3125 69.4375 64.0625 68.25 65.4375 66.6875C66.75 65.125 67.375 63 67.375 60.25C67.4375 58.3125 66.9375 56.375 65.9375 54.6875C64.875 53.0625 63.375 51.8125 61.5625 51.125ZM123.438 0.375H26.5625C11.875 0.375 0 12.25 0 26.9375V120.056C0 134.744 11.875 146.619 26.5625 146.619H123.438C138.125 146.619 150 134.744 150 120.056V26.9375C150 12.25 138.125 0.375 123.438 0.375ZM77.2438 73.1875C74.75 76.6875 71.25 79.3125 67.1875 80.8125C62.9375 82.375 58.25 82.9375 53.125 82.9375C51.625 82.9375 50.625 82.9375 50 82.875C49.375 82.8125 48.5 82.8125 47.3125 82.8125V102.869C47.375 103.306 47.0625 103.688 46.625 103.75H34.5C34 103.75 33.75 103.494 33.75 102.931V38.625C33.75 38.1875 33.9375 37.9375 34.375 37.9375C35.4375 37.9375 36.4375 37.9375 37.875 37.875C39.375 37.8125 40.9375 37.8125 42.625 37.75C44.3125 37.6875 46.125 37.6875 48.0625 37.625C50 37.5625 51.875 37.5625 53.75 37.5625C58.875 37.5625 63.125 38.1875 66.625 39.5C69.75 40.5625 72.625 42.3125 75 44.625C77 46.625 78.5625 49.0625 79.5625 51.75C80.4937 54.375 80.9937 57.0625 80.9937 59.875C81 65.25 79.75 69.6875 77.2438 73.1875ZM121.563 97.5C119.813 100 117.369 101.931 114.562 103.069C111.5 104.375 107.75 105.056 103.244 105.056C100.375 105.056 97.5563 104.812 94.75 104.25C92.5625 103.869 90.375 103.188 88.375 102.25C87.9375 102.006 87.6188 101.569 87.6813 101.069V90.1937C87.6813 90.0125 87.75 89.7562 87.9375 89.6312C88.1188 89.5062 88.3125 89.5687 88.5 89.6937C90.9375 91.1312 93.5 92.1375 96.25 92.7562C98.6187 93.3812 101.119 93.6937 103.625 93.6937C106 93.6937 107.688 93.375 108.812 92.8125C109.812 92.375 110.5 91.3125 110.5 90.1875C110.5 89.3062 110 88.5 109 87.6875C108 86.8812 105.944 85.9437 102.881 84.7437C99.6938 83.6187 96.7625 82.1187 94.0063 80.25C92.0687 78.8687 90.45 77.0625 89.25 74.9375C88.2562 72.9375 87.7562 70.75 87.8187 68.5562C87.8187 65.8687 88.5687 63.3062 89.95 60.9937C91.5125 58.4937 93.8187 56.4937 96.5062 55.2437C99.4375 53.75 103.125 53.0625 107.562 53.0625C110.125 53.0625 112.75 53.25 115.313 53.625C117.188 53.875 119 54.375 120.688 55.0625C120.931 55.125 121.188 55.375 121.312 55.625C121.375 55.875 121.438 56.125 121.438 56.375V66.5625C121.438 66.8125 121.312 67.0625 121.125 67.1875C120.562 67.3125 120.25 67.3125 120 67.1875C118.125 66.1875 116.125 65.5 114 65.0625C111.688 64.5625 109.375 64.25 107 64.25C105.75 64.1875 104.437 64.375 103.244 64.6875C102.437 64.875 101.744 65.3125 101.306 65.9375C100.994 66.4375 100.806 67.0625 100.806 67.625C100.806 68.1875 101.056 68.75 101.438 69.25C102 69.9375 102.744 70.5 103.562 70.9375C104.994 71.6875 106.5 72.375 107.994 73C111.375 74.125 114.625 75.6875 117.625 77.5625C119.688 78.8687 121.375 80.625 122.556 82.75C123.556 84.7375 124.056 86.9375 123.994 89.1812C124.063 92.125 123.188 95.0562 121.563 97.5Z" fill="url(#paint0_linear_37_201)"/>
<defs>
<linearGradient id="paint0_linear_37_201" x1="75" y1="0.375" x2="75" y2="146.619" gradientUnits="userSpaceOnUse">
<stop stop-color="#010C45"/>
<stop offset="0.58" stop-color="#59268C"/>
<stop offset="0.795" stop-color="#59268C"/>
<stop offset="1" stop-color="#59268C"/>
</linearGradient>
</defs>
</svg>
